<svg xmlns="http://www.w3.org/2000/svg" width="24" height="24" viewBox="0 0 24 24"><defs><style>.a{fill:#fff;stroke:rgba(0,0,0,0);stroke-miterlimit:10;}</style></defs><path class="a" d="M20390.311,18358.93a8.37,8.37,0,0,1-2.791-.537,5.546,5.546,0,0,1-2.037-1.322,5.658,5.658,0,0,1-1.328-2.033,8.586,8.586,0,0,1-.531-2.795c-.057-1.225-.072-1.613-.072-4.744s.016-3.508.072-4.736a8.588,8.588,0,0,1,.531-2.8,5.549,5.549,0,0,1,1.328-2.033,5.608,5.608,0,0,1,2.037-1.326,8.624,8.624,0,0,1,2.791-.537c1.225-.057,1.613-.066,4.738-.066s3.514.01,4.742.066a8.675,8.675,0,0,1,2.8.537,5.893,5.893,0,0,1,3.359,3.359,8.571,8.571,0,0,1,.537,2.8c.057,1.219.066,1.619.066,4.736s-.01,3.514-.066,4.744a8.569,8.569,0,0,1-.537,2.795,5.6,5.6,0,0,1-1.326,2.033,5.674,5.674,0,0,1-2.033,1.322,8.419,8.419,0,0,1-2.8.537c-1.225.057-1.613.072-4.742.072S20391.541,18358.986,20390.311,18358.93Zm.088-20.8a6.3,6.3,0,0,0-2.137.4,3.574,3.574,0,0,0-1.326.861,3.507,3.507,0,0,0-.859,1.326,6.212,6.212,0,0,0-.4,2.135c-.057,1.209-.066,1.578-.066,4.645s.01,3.438.066,4.65a6.249,6.249,0,0,0,.4,2.137,3.5,3.5,0,0,0,.859,1.32,3.584,3.584,0,0,0,1.326.865,6.238,6.238,0,0,0,2.137.4c1.213.057,1.576.066,4.645.066s3.438-.01,4.65-.066a6.246,6.246,0,0,0,2.135-.4,3.594,3.594,0,0,0,1.322-.865,3.469,3.469,0,0,0,.865-1.32,6.348,6.348,0,0,0,.4-2.137c.051-1.213.066-1.576.066-4.65s-.012-3.436-.066-4.645a6.31,6.31,0,0,0-.4-2.135,3.641,3.641,0,0,0-.865-1.326,3.444,3.444,0,0,0-1.322-.861,6.308,6.308,0,0,0-2.135-.4c-1.213-.057-1.578-.072-4.65-.072S20391.611,18338.076,20390.4,18338.133Zm-1.26,9.365a5.907,5.907,0,1,1,5.9,5.906A5.9,5.9,0,0,1,20389.139,18347.5Zm2.074,0a3.833,3.833,0,1,0,3.83-3.83A3.828,3.828,0,0,0,20391.213,18347.5Zm8.594-6.141a1.38,1.38,0,1,1,1.377,1.383A1.378,1.378,0,0,1,20399.807,18341.357Z" transform="translate(-20383.051 -18335.502)"/></svg>