<svg fill="none" height="24" viewBox="0 0 24 24" width="24" xmlns="http://www.w3.org/2000/svg" xmlns:xlink="http://www.w3.org/1999/xlink"><clipPath id="a"><path d="m0 2h24v20.4367h-24z"/></clipPath><g clip-path="url(#a)" fill="#fff"><path d="m22.8226 21.1406c.0515.0005.1026-.0096.15-.0296.0474-.0201.0903-.0496.1258-.0869s.063-.0814.0808-.1298c.0177-.0483.0254-.0998.0224-.1512 0-.2819-.1701-.4166-.519-.4166h-.5638v1.4759h.2121v-.6434h.2606l.0059.0079.4044.6355h.2268l-.4351-.6578zm-.2452-.1479h-.2459v-.4989h.3116c.161 0 .3446.0263.3446.2371 0 .2424-.1857.2618-.4116.2618zm-5.2862-1.7017h-3.0069v-4.7089c0-1.1229-.02-2.5684-1.5639-2.5684-1.5661 0-1.8057 1.2234-1.8057 2.4866v4.7904h-3.00689v-9.68345h2.88659v1.32335h.0404c.2889-.4939.7064-.9003 1.2079-1.17572.5015-.27545 1.0684-.40972 1.6402-.38849 3.0476 0 3.6095 2.00461 3.6095 4.61241zm-12.77616-11.00741c-.34512.00007-.6825-.10221-.96949-.2939-.28699-.19168-.51069-.46416-.64282-.78299-.13213-.31882-.16674-.66966-.09948-1.00816.06727-.33849.2334-.64944.47739-.89352s.55488-.41032.89336-.47771c.33847-.06739.68932-.0329 1.00819.09912.31887.13201.59143.35561.78322.64253s.29419.62427.29425.96938c.00004.22915-.04505.45606-.13271.66779-.08765.21172-.21615.4041-.37815.56616s-.35434.29063-.56603.37836-.43859.1329-.66773.13294zm1.50344 11.00741h-3.01002v-9.68375h3.01002zm12.77182-17.28962h-17.29281c-.39249-.00443-.770691.14715-1.051486.42143-.280796.27427-.44121379.64881-.446004 1.0413v17.36449c.00462626.3927.164942.7675.445727 1.042.280786.2746.659073.4265 1.051763.4223h17.29281c.3934.0049.7728-.1465 1.0547-.4211.2819-.2745.4433-.6497.4487-1.0432v-17.36574c-.0056-.39327-.1671-.76823-.449-1.0425s-.6612-.42542-1.0544-.42023"/><path d="m22.6049 19.6699c-.3659.0035-.7154.1518-.9723.4123-.2568.2606-.4.6123-.3982.9781.0018.3659.1483.7161.4076.9742.2594.2581.6103.403.9762.403.3658 0 .7168-.1449.9761-.403s.4059-.6083.4077-.9742c.0017-.3658-.1415-.7175-.3983-.9781-.2568-.2605-.6064-.4088-.9722-.4123zm0 2.6091c-.24.004-.4757-.0632-.6775-.1932-.2017-.13-.3604-.3169-.4559-.5371-.0955-.2201-.1236-.4637-.0807-.6998s.1548-.4542.3217-.6267c.1668-.1725.3811-.2917.6157-.3424.2345-.0507.4789-.0308.7021.0574.2232.0881.4153.2405.5519.4377.1366.1973.2117.4307.2157.6707v.0203c.0067.3148-.1119.6194-.3296.8467-.2178.2274-.517.359-.8318.3658h-.0313"/></g></svg>