<svg xmlns="http://www.w3.org/2000/svg" width="24" height="24" viewBox="0 0 24 24"><rect width="24" height="24" fill="none"/><path d="M20.4,3.488A11.9,11.9,0,0,0,1.687,17.837L0,24l6.3-1.654a11.877,11.877,0,0,0,5.683,1.447h.005A11.9,11.9,0,0,0,20.4,3.488Zm-8.412,18.3h0a9.872,9.872,0,0,1-5.031-1.378L6.6,20.193l-3.741.981,1-3.648-.235-.374a9.885,9.885,0,1,1,8.374,4.632Zm5.422-7.4c-.3-.149-1.758-.867-2.031-.967s-.47-.149-.668.149-.767.967-.941,1.165-.347.223-.644.074a8.125,8.125,0,0,1-2.39-1.475,8.956,8.956,0,0,1-1.653-2.059c-.173-.3-.018-.458.13-.606s.3-.347.446-.521a2.025,2.025,0,0,0,.3-.5.547.547,0,0,0-.024-.521c-.074-.149-.668-1.611-.916-2.206-.241-.579-.486-.5-.668-.51s-.371-.01-.57-.01a1.091,1.091,0,0,0-.793.372,3.333,3.333,0,0,0-1.04,2.479,5.782,5.782,0,0,0,1.213,3.074,13.253,13.253,0,0,0,5.076,4.487,17.044,17.044,0,0,0,1.694.626,4.071,4.071,0,0,0,1.872.118,3.061,3.061,0,0,0,2.006-1.413,2.487,2.487,0,0,0,.173-1.413c-.074-.124-.273-.2-.57-.347Z" transform="translate(0.115)" fill="#fff" fill-rule="evenodd"/></svg>