<svg fill="none" height="24" viewBox="0 0 24 24" width="24" xmlns="http://www.w3.org/2000/svg"><path d="m23.4955 6.19624c-.2728-1.03637-1.091-1.85455-2.1273-2.14091-1.8682-.50455-9.3682-.50455-9.3682-.50455s-7.5 0-9.38182.50455c-1.03636.27272-1.840907 1.09091-2.127271 2.14091-.490909 1.88181-.490909 5.80906-.490909 5.80906s0 3.9273.504545 5.8091c.272728 1.0364 1.090905 1.8546 2.127275 2.1409 1.86818.5046 9.36818.5046 9.36818.5046s7.5 0 9.3818-.5046c1.0364-.2727 1.8409-1.0909 2.1273-2.1409.4909-1.8818.4909-5.8091.4909-5.8091s0-3.92725-.5045-5.80906zm-13.95005 9.38186v-7.1455l6.27275 3.5727z" fill="#fff"/></svg>